#!OML:ASF X:\für Bonn\!DataBase\2005_08_10_Bjorn_Final\c3d\bjorn.ASF
:FULLY-SPECIFIED
:DEGREES
431
root -0.626017 1.564 11.0874 -2442.86 -6.05466 198.842
lowerback 15.9021 2.22039 -7.73006
upperback 9.9902 0.594316 -4.66675
thorax 1.69415 -0.575288 -0.686927
lowerneck -7.2612 -3.53199 -4.06112
upperneck 6.95564 -4.00612 -3.35833
head 3.56012 -2.23656 -0.608276
rclavicle 2.54444e-014 3.65764e-014
rhumerus -376.79 22.0289 296.714
rradius 83.5758
rwrist -3.48997
rhand -21.9254 15.0269
rfingers 7.12502
rthumb 4.48076 -14.9057
lclavicle 2.54444e-014 3.65764e-014
lhumerus -9.40598 -26.8638 64.2505
lradius 69.91
lwrist -27.7587
lhand -54.9571 -24.3835
lfingers 7.12502
lthumb -27.3391 723.654
rfemur -203.423 -153.987 161.079
rtibia 101.296
rfoot 41.7293 12.4878
rtoes 1.61656
lfemur 140.976 180.151 164.88
ltibia 105.35
lfoot 33.412 -1.05631
ltoes -2.37537
432
root -0.628318 1.56307 11.0977 -2442.91 -6.03514 198.831
lowerback 15.9131 2.08405 -7.83572
upperback 9.77771 0.428641 -4.61579
thorax 1.46633 -0.63038 -0.545364
lowerneck -7.75373 -3.43003 -4.03042
upperneck 6.95692 -3.83847 -3.44614
head 3.65426 -2.16083 -0.644559
rclavicle 1.27222e-014 -3.81667e-014
rhumerus -377.183 22.2881 297.373
rradius 85.5531
rwrist -3.92835
rhand -22.1263 15.0138
rfingers 7.12502
rthumb 4.28682 -14.9228
lclavicle 1.27222e-014 -3.81667e-014
lhumerus -9.87969 -27.311 63.7043
lradius 70.7952
lwrist -27.4364
lhand -54.9484 -24.3216
lfingers 7.12502
lthumb -27.3308 723.717
rfemur -203.353 -154.138 161.198
rtibia 101.185
rfoot 41.6387 12.4306
rtoes 1.43192
lfemur 141.102 180.252 164.843
ltibia 105.245
lfoot 33.391 -0.939752
ltoes -2.4107
433
root -0.630175 1.56189 11.1078 -2442.96 -6.03022 198.816
lowerback 15.9203 1.96362 -7.91156
upperback 9.58472 0.283069 -4.59276
thorax 1.26183 -0.677236 -0.453151
lowerneck -8.2953 -3.34415 -4.00712
upperneck 7.01325 -3.69191 -3.46126
head 3.78003 -2.09414 -0.658439
rclavicle -2.22639e-014 6.24184e-014
rhumerus -377.62 22.4918 298.005
rradius 87.4834
rwrist -4.39106
rhand -22.4566 15.1504
rfingers 7.12502
rthumb 3.96788 -14.7924
lclavicle -2.22639e-014 6.24184e-014
lhumerus -10.3366 -27.7794 63.1336
lradius 71.6885
lwrist -27.1358
lhand -54.9763 -24.2391
lfingers 7.12502
lthumb -27.3575 723.795
rfemur -203.295 -154.305 161.313
rtibia 101.078
rfoot 41.5846 12.3207
rtoes 1.3306
lfemur 141.221 180.342 164.794
ltibia 105.14
lfoot 33.3787 -0.843868
ltoes -2.561
434
root -0.631742 1.56161 11.1167 -2443.01 -6.05303 198.806
lowerback 15.9351 1.84722 -8.02475
upperback 9.38419 0.135899 -4.57188
thorax 1.04656 -0.725629 -0.342055
lowerneck -8.74532 -3.26222 -3.97896
upperneck 7.03459 -3.5584 -3.47492
head 3.87586 -2.03236 -0.670216
rclavicle -4.45278e-014 -9.54166e-015
rhumerus -378.079 22.7342 298.616
rradius 89.2979
rwrist -4.81088
rhand -22.956 15.4584
rfingers 7.12502
rthumb 3.4856 -14.4928
lclavicle -4.45278e-014 -9.54166e-015
lhumerus -10.8596 -28.2224 62.5842
lradius 72.6039
lwrist -26.8154
lhand -54.9979 -24.3069
lfingers 7.12502
lthumb -27.3781 723.724
rfemur -203.234 -154.481 161.395
rtibia 100.974
rfoot 41.5247 12.1861
rtoes 1.31951
lfemur 141.346 180.451 164.71
ltibia 105.041
lfoot 33.3653 -0.684138
ltoes -2.55497
435
root -0.632677 1.56081 11.1239 -2443.06 -6.07869 198.808
lowerback 15.9504 1.73232 -8.11639
upperback 9.19786 -0.00937401 -4.56875
thorax 0.846953 -0.773992 -0.262121
lowerneck -9.16617 -3.19802 -3.93229
upperneck 7.03636 -3.45537 -3.46
head 3.95953 -1.98282 -0.676166
rclavicle -6.36111e-015 6.67916e-014
rhumerus -378.558 22.944 299.2
rradius 91.0332
rwrist -5.11709
rhand -23.5995 15.7901
rfingers 7.12502
rthumb 2.86414 -14.1704
lclavicle -6.36111e-015 6.67916e-014
lhumerus -11.3917 -28.6809 62.016
lradius 73.5376
lwrist -26.5069
lhand -55.0794 -24.2558
lfingers 7.12502
lthumb -27.4561 723.763
rfemur -203.175 -154.643 161.475
rtibia 100.879
rfoot 41.4714 12.1222
rtoes 1.18748
lfemur 141.452 180.55 164.621
ltibia 104.947
lfoot 33.3435 -0.632388
ltoes -2.80234
436
root -0.633254 1.56073 11.13 -2443.09 -6.10545 198.784
lowerback 15.952 1.62907 -8.20607
upperback 9.01542 -0.139115 -4.56712
thorax 0.658503 -0.815503 -0.187152
lowerneck -9.55842 -3.1316 -3.83962
upperneck 7.05103 -3.35589 -3.46096
head 4.04115 -1.93463 -0.695043
rclavicle 4.45278e-014 -6.67916e-014
rhumerus -379.042 23.1406 299.786
rradius 92.7183
rwrist -5.38449
rhand -24.211 16.0704
rfingers 7.12502
rthumb 2.27361 -13.8972
lclavicle 4.45278e-014 -6.67916e-014
lhumerus -11.9617 -29.1466 61.4519
lradius 74.4909
lwrist -26.1897
lhand -55.1699 -24.2821
lfingers 7.12502
lthumb -27.5426 723.723
rfemur -203.148 -154.819 161.561
rtibia 100.799
rfoot 41.4325 11.9699
rtoes 1.25507
lfemur 141.558 180.637 164.546
ltibia 104.859
lfoot 33.3368 -0.485653
ltoes -2.75756
437
root -0.63339 1.56198 11.1354 -2443.12 -6.14384 198.761
lowerback 15.933 1.52434 -8.33045
upperback 8.83836 -0.271688 -4.5472
thorax 0.488272 -0.860166 -0.0733017
lowerneck -9.94226 -3.07787 -3.7994
upperneck 7.08016 -3.26834 -3.44711
head 4.12814 -1.89343 -0.700384
rclavicle -5.725e-014 -9.14409e-015
rhumerus -379.493 23.3278 300.394
rradius 94.3421
rwrist -5.58637
rhand -24.7573 16.2714
rfingers 7.12502
rthumb 1.74596 -13.7012
lclavicle -5.725e-014 -9.14409e-015
lhumerus -12.5521 -29.5963 60.924
lradius 75.4374
lwrist -25.8201
lhand -55.3295 -24.3472
lfingers 7.12502
lthumb -27.6952 723.634
rfemur -203.129 -154.988 161.64
rtibia 100.725
rfoot 41.3836 11.8673
rtoes 1.20608
lfemur 141.65 180.714 164.457
ltibia 104.773
lfoot 33.3171 -0.363755
ltoes -2.87034
438
root -0.633333 1.56271 11.1405 -2443.12 -6.20079 198.739
lowerback 15.9001 1.42338 -8.45347
upperback 8.66732 -0.399669 -4.54469
thorax 0.332213 -0.903403 0.0205021
lowerneck -10.284 -3.03415 -3.71052
upperneck 7.08132 -3.20332 -3.44625
head 4.19563 -1.86147 -0.718564
rclavicle -3.81667e-014 -6.0033e-014
rhumerus -379.947 23.4488 300.963
rradius 95.8928
rwrist -5.72251
rhand -25.2149 16.3897
rfingers 7.12502
rthumb 1.30401 -13.5861
lclavicle -3.81667e-014 -6.0033e-014
lhumerus -13.1635 -30.027 60.4092
lradius 76.4404
lwrist -25.4289
lhand -55.4145 -24.3921
lfingers 7.12502
lthumb -27.7765 723.576
rfemur -203.143 -155.157 161.707
rtibia 100.657
rfoot 41.3806 11.6426
rtoes 1.47055
lfemur 141.717 180.786 164.344
ltibia 104.686
lfoot 33.2978 -0.24151
ltoes -2.99275
439
root -0.632668 1.56342 11.1438 -2443.11 -6.25844 198.718
lowerback 15.8591 1.31939 -8.57166
upperback 8.49297 -0.530571 -4.54991
thorax 0.177637 -0.947407 0.103922
lowerneck -10.606 -2.98156 -3.61275
upperneck 7.09281 -3.13255 -3.40686
head 4.26358 -1.82443 -0.72456
rclavicle 4.77083e-014 -3.97569e-015
rhumerus -380.375 23.5556 301.514
rradius 97.4093
rwrist -5.87843
rhand -25.5856 16.397
rfingers 7.12502
rthumb 0.945943 -13.5806
lclavicle 4.77083e-014 -3.97569e-015
lhumerus -13.7751 -30.4019 59.9208
lradius 77.4577
lwrist -25.0252
lhand -55.4385 -24.4799
lfingers 7.12502
lthumb -27.7994 723.484
rfemur -203.183 -155.31 161.777
rtibia 100.6
rfoot 41.3589 11.5079
rtoes 1.53786
lfemur 141.748 180.858 164.236
ltibia 104.62
lfoot 33.3034 -0.0938998
ltoes -2.95119
